<?xml version="1.0" encoding="UTF-8" standalone="no"?><!-- Generator: Gravit.io --><svg xmlns="http://www.w3.org/2000/svg" xmlns:xlink="http://www.w3.org/1999/xlink" style="isolation:isolate" viewBox="226.559 246.406 382.441 138.594" width="382.441pt" height="138.594pt"><defs><clipPath id="_clipPath_fuSUBr5E7OnmTkOxOk2wIzPwO5Pd1Z7Y"><rect x="226.559" y="246.406" width="382.441" height="138.594"/></clipPath></defs><g clip-path="url(#_clipPath_fuSUBr5E7OnmTkOxOk2wIzPwO5Pd1Z7Y)"><g><g><g><g><path d=" M 330.388 321.317 C 329.14 299.836 327.851 277.624 329.601 255.833 C 329.604 255.813 329.606 255.793 329.606 255.773 C 329.607 255.666 329.564 255.564 329.489 255.489 C 329.414 255.413 329.312 255.371 329.206 255.371 L 329.204 255.371 C 323.835 255.797 318.466 256.222 313.096 256.646 L 323.262 264.403 C 323.524 264.604 323.676 264.915 323.675 265.246 C 323.614 280.59 324.52 296.219 325.398 311.335 C 326.189 324.971 327.007 339.074 327.113 352.943 C 327.116 353.224 327.007 353.495 326.809 353.694 C 326.611 353.894 326.342 354.006 326.061 354.005 L 326.001 354.003 C 299.035 352.471 271.113 347.703 236.849 338.714 L 236.691 338.673 C 235.932 340.085 235.167 341.494 234.396 342.899 C 234.337 343.006 234.33 343.135 234.377 343.248 C 234.424 343.361 234.521 343.446 234.639 343.479 C 272.935 354.184 302.839 359.686 331.6 361.32 L 331.623 361.321 C 331.73 361.321 331.833 361.279 331.908 361.203 C 331.984 361.127 332.026 361.024 332.025 360.917 C 331.923 347.721 331.143 334.298 330.388 321.317 L 330.388 321.317 Z " fill="rgb(17,99,133)"/><path d=" M 336.363 327.998 C 335.115 306.517 333.825 284.305 335.575 262.516 C 335.593 262.4 335.56 262.283 335.484 262.194 C 335.408 262.105 335.297 262.054 335.18 262.054 L 335.178 262.054 L 335.142 262.055 L 330.835 262.397 C 329.601 282.676 330.791 303.243 331.95 323.183 C 332.705 336.166 333.483 349.588 333.584 362.782 C 333.586 362.889 333.544 362.992 333.468 363.068 C 333.392 363.144 333.289 363.186 333.182 363.185 L 333.159 363.185 C 305.825 361.63 277.453 356.579 241.834 346.894 C 241.35 347.785 240.862 348.681 240.368 349.578 C 240.309 349.685 240.302 349.814 240.35 349.927 C 240.397 350.04 240.494 350.125 240.612 350.158 C 278.908 360.863 308.812 366.366 337.575 367.999 L 337.598 368 C 337.705 368 337.808 367.957 337.883 367.881 C 337.959 367.805 338.001 367.703 338 367.596 C 337.896 354.402 337.117 340.979 336.363 327.998 Z " fill="rgb(17,99,133)"/><path d=" M 323.808 310.825 C 322.974 296.431 322.11 281.544 322.17 266.933 C 322.171 266.618 322.025 266.321 321.774 266.13 L 296.199 246.611 C 296.002 246.462 295.757 246.39 295.511 246.409 C 284.117 247.311 272.723 248.214 261.329 249.121 C 260.903 249.155 260.545 249.455 260.437 249.869 C 253.377 276.975 242.653 303.119 226.684 332.148 C 226.536 332.416 226.519 332.738 226.638 333.02 C 226.756 333.303 226.998 333.516 227.293 333.598 C 265.633 344.315 295.577 349.825 324.384 351.461 L 324.44 351.463 C 324.708 351.463 324.964 351.356 325.153 351.167 C 325.341 350.977 325.446 350.72 325.444 350.452 C 325.343 337.244 324.562 323.814 323.808 310.825 Z  M 294.787 268.936 C 295.365 261.735 295.612 254.53 295.641 247.322 L 321.216 266.84 C 312.408 267.538 303.597 268.236 294.787 268.936 Z " fill="rgb(17,99,133)"/></g></g><text transform="matrix(1,0,0,1,345,352.5)" style="font-family:'Josefin Sans';font-weight:700;font-size:130px;font-style:normal;font-variant-ligatures:none;fill:#F47EAD;stroke:none;">NoT</text><circle vector-effect="non-scaling-stroke" cx="483" cy="283.2029981109697" r="8" fill="rgb(17,99,133)"/><circle vector-effect="non-scaling-stroke" cx="505" cy="283.2029981109697" r="8" fill="rgb(17,99,133)"/></g></g></g></svg>